# xmcd
#
# Track frame offsets:
#	150
#	17208
#	33723
#	49938
#	67987
#	84172
#	100362
#	114096
#	129390
#	145925
#	165019
#	182271
#	197201
#	214275
#	230171
#	245191
#	263966
#	283357
#	303693
#	321099
#
# Disc length: 4468 seconds
#
# Revision: 0
# Processed by: cddbd v1.5.2PL0 Copyright (c) Steve Scherf et al.
# Submitted via: EasyCDDAExtractor 12.0.7.1
#
DISCID=27117214
DTITLE=Various Artist - Русские музыкальные новости №7
DYEAR=2002
DGENRE=Pop
TTITLE0=Евро - Радио DJ
TTITLE1=Света - Хватит, довольно
TTITLE2=Руки вверх - Стоят девчонки
TTITLE3=Андрей Губин - Танцы
TTITLE4=Юрий Шатунов - Детство
TTITLE5=Девочки - Ведь я такая (Красивая сегодня)
TTITLE6=Игорек - Не плачь
TTITLE7=Блестящие - За четыре моря
TTITLE8=Катя Лель - Между нами
TTITLE9=Паскаль - Невидымый (Remix)
TTITLE10=Стрелки - Успеем
TTITLE11=J-Power - Она его не любит
TTITLE12=Демо - Дождик
TTITLE13=Dado - Лето
TTITLE14=Анита Цой - Это ли любовь
TTITLE15=Банда Андрюха and Света - Другая
TTITLE16=Fantasy - Ты беременна
TTITLE17=Игорь Николаев - Прости и отпусти
TTITLE18=Иван Купала - Ящер
TTITLE19=Пит-Буль - Хули-мули
EXTD=
EXTT0=
EXTT1=
EXTT2=
EXTT3=
EXTT4=
EXTT5=
EXTT6=
EXTT7=
EXTT8=
EXTT9=
EXTT10=
EXTT11=
EXTT12=
EXTT13=
EXTT14=
EXTT15=
EXTT16=
EXTT17=
EXTT18=
EXTT19=
PLAYORDER=
